<svg version="1.0" xmlns="http://www.w3.org/2000/svg" width="429.333" height="449.333" viewBox="0 0 322 337"><path d="M142 18.1C95.2 22.5 53 47.9 26.5 87.5c-11.9 17.7-19.1 35.3-23.7 57.3-3.2 15.3-3.1 44.1 0 58.9 7.4 34.2 21.6 60.1 46.4 83.9 41.7 40.1 101.9 53.6 157.2 35.2 45-14.9 82.5-51.8 98.4-96.9 8.7-24.7 10.9-57.3 5.6-83.3C298.9 85.9 254.8 38.7 199 23.1c-16.9-4.7-39.4-6.7-57-5zm38 9.4c62.5 10.1 112.5 59.4 123.1 121.3 2.5 14.9 2.5 35.8 0 50.2-1.6 9.3-5.7 25-6.5 25-.1 0-.3-1.5-.3-3.3-.1-3.2-5.3-12.2-59.1-100.2-23-37.7-32.5-52.8-46.4-73.6l-10.3-15.4-24.4-.3c-16.7-.2-24.8.1-25.7.9-.7.6-3.1 4.3-5.2 8.2-5.9 11-54.5 99.5-62.7 114.2-31.6 57-36.8 67-37.3 71.7-.7 7.8.6 13.3 4.9 19.7 9.9 14.9 35.1 26.1 49.6 22.2 4.6-1.3 10.4-7.3 22.9-24l6.7-9.1 18.1-.1c10-.1 19.9-.2 22.1-.4 2.2-.1 16.4-.3 31.6-.6l27.6-.3 9.9 8.9c5.4 5 13.1 12.1 17.1 15.9l7.2 6.8 5.8-.1c11.6-.1 24.2-6.1 33.7-16.1 7.1-7.4 6.7-6-2.1 7.3-8.5 12.9-27.1 31.8-39.8 40.4-17.5 11.8-38.7 20.4-59 23.9-12.1 2-35.7 2.3-46.9.5-22.5-3.7-48.6-14.6-66.1-27.8-46.3-34.9-68-90.7-57.4-147.1C22.5 86.3 70.8 38.7 131 28c13.4-2.3 35.9-2.6 49-.5zm-40.2 14.2c1.1 1.6 7.7 12.7 14.7 24.8 14.8 25.6 20.3 35.2 35.1 60.5 15.8 27.2 15.7 27 14.9 27.8-.3.4-5.5.9-11.5 1l-10.8.4-2.4-3.3c-2.5-3.6-28.5-38.5-32.3-43.6-2.9-3.7-7.1-4.9-11.9-3.3-3.2 1-4.5 2.9-13.4 18.8-5.5 9.7-18.8 33.4-29.7 52.7-10.9 19.2-24.7 43.8-30.7 54.5-6 10.7-11.3 19.8-11.7 20.3-1.2 1.2-9.6-5.8-13-10.9-3.4-5.2-4.6-9.9-3.7-14.5.3-1.7 3.8-9 7.8-16.3 6-10.9 43.6-79.4 74.8-136.1 4.2-7.7 10.3-18.8 13.6-24.8 3.2-5.9 6.4-10.7 7.1-10.7.6 0 2 1.2 3.1 2.7zm47 14c13.7 21 38.6 61 61.4 98.8 9.6 15.9 22.6 37.3 28.7 47.5 9.9 16.2 11.2 18.8 10.7 21.8-.7 4.9-4.2 11.5-8.4 16.3l-3.8 4.2-12.2-15.7c-13.6-17.3-26.8-31.4-32.2-34.2-3.8-2-7.2-2-63-.5-27.1.7-29.7.4-33.5-3.9-3.1-3.4-2.7-11.9.9-19.8l2.9-6.3 32.6.2c28.7.1 33.1-.1 36.9-1.6 4.6-1.9 6.2-3.9 6.2-7.8 0-1.4-6.3-13.3-14.3-26.9-7.9-13.3-15.8-27-17.7-30.3-1.8-3.3-9.8-17-17.6-30.5-7.9-13.5-14.6-25.3-15-26.3-.6-1.6.6-1.7 12.9-1.7h13.5l11 16.7zm-40.4 66.1l4.7 6.9-9.1 13.8c-5 7.6-10.9 17.6-13.2 22.3-6.9 14.2-6.4 25.8 1.4 32.8 5.2 4.8 8.4 5.6 19.2 5 5.6-.3 25.2-.8 43.7-1.2l33.5-.7 6.3 5.8c6.4 6 18.9 20.7 29.9 35.2l6.2 8.2-4.2 2.5c-4.8 2.7-10.9 4.6-15.2 4.6-2.9 0-12.1-7.7-30.3-25.3l-7.1-7-20.9.6c-11.4.4-35.6 1-53.6 1.3l-32.8.7-9.1 11.9c-5 6.5-11 14-13.3 16.6l-4.3 4.7-6.3-.1c-5.9-.2-13.9-2.4-13.9-4 0-.6 32.8-59.2 56.5-100.9 5.6-9.9 13.1-23.2 16.5-29.5 3.5-6.3 6.8-11.8 7.4-12.2 1.4-1 2.6.2 8 8zm17.5 23.6c3.9 5.2 7.1 9.7 7.1 10 0 .3-6.1.6-13.5.6s-13.5-.3-13.5-.7c0-.8 12.1-19.3 12.6-19.3.1 0 3.4 4.2 7.3 9.4z"/></svg>